<svg xmlns="http://www.w3.org/2000/svg" viewBox="0 0 305.49 77.37"><defs><style>.cls-1{fill:#fff;}.cls-2{fill:#232323;}</style></defs><g id="Camada_2" data-name="Camada 2"><g id="Camada_1-2" data-name="Camada 1"><path class="cls-1" d="M15.32,38.47H0l7.66-7.66H46l-7.66,7.66H53.64L46,46.13H7.66ZM46,15.48H7.66V.16H46Zm0,61.3H7.66V61.45H46Z"/><path class="cls-1" d="M84.29,30.81l-7.67,7.66H61.3L69,30.81V15.48H53.64V.16h46V15.48H84.29ZM69,46.13l7.66-7.66H92l-7.66,7.66V76.78H69Z"/><path class="cls-1" d="M114,6.78a.9.9,0,0,1,.21-.62.77.77,0,0,1,.59-.22H133a.85.85,0,0,1,.62.23.94.94,0,0,1,.22.64v4.52a1,1,0,0,1-.22.59.76.76,0,0,1-.64.28H121.1v4.53h9.13a1,1,0,0,1,.58.17.63.63,0,0,1,.23.54v3.95a.77.77,0,0,1-.2.49.73.73,0,0,1-.59.24H121.1V26.8h12.28a.73.73,0,0,1,.82.83v4.59a.46.46,0,0,1-.15.33q-.08.51-.75.51H114.83a.85.85,0,0,1-.58-.19.74.74,0,0,1-.22-.59Z"/><path class="cls-1" d="M141.41,25.85a6,6,0,0,0,1.07.83,8.15,8.15,0,0,0,1.11.55,6.14,6.14,0,0,0,.93.3,3,3,0,0,0,.54.09l.89,0a4.92,4.92,0,0,0,1-.16,2.24,2.24,0,0,0,.85-.45,1.1,1.1,0,0,0,.36-.88,1.47,1.47,0,0,0-.2-.81,1.66,1.66,0,0,0-.59-.51,4.7,4.7,0,0,0-.94-.38c-.37-.11-.79-.23-1.25-.38a15,15,0,0,1-3.62-1.41,8.15,8.15,0,0,1-2.25-1.83,6,6,0,0,1-1.16-2.19,9,9,0,0,1-.33-2.46,6.27,6.27,0,0,1,.6-2.76,6.09,6.09,0,0,1,1.72-2.13,8.21,8.21,0,0,1,2.67-1.37,11.6,11.6,0,0,1,3.45-.48,11.24,11.24,0,0,1,2.15.19,8.93,8.93,0,0,1,1.92.6,9.94,9.94,0,0,1,1.78,1.06,13.5,13.5,0,0,1,1.73,1.55,1.14,1.14,0,0,1,.32.68,1,1,0,0,1-.41.69c-.48.39-.93.77-1.36,1.15s-.88.79-1.35,1.26a1,1,0,0,1-.43.23,1,1,0,0,1-.42,0,1.18,1.18,0,0,1-.39-.19,1.37,1.37,0,0,1-.33-.31,3.22,3.22,0,0,0-1.46-1,5.5,5.5,0,0,0-1.53-.24,2.81,2.81,0,0,0-1.43.31,1,1,0,0,0-.49,1,1,1,0,0,0,.36.74,2.64,2.64,0,0,0,.78.43,7.16,7.16,0,0,0,1,.26c.34.07.66.14,1,.23a28.76,28.76,0,0,1,3,1.15,9,9,0,0,1,2.38,1.53,6.37,6.37,0,0,1,1.56,2.16,7.59,7.59,0,0,1,.55,3.07,7.07,7.07,0,0,1-.72,3.23,6.85,6.85,0,0,1-2,2.39,9,9,0,0,1-3,1.48,12.7,12.7,0,0,1-3.71.52,13,13,0,0,1-2.3-.21,10.5,10.5,0,0,1-2.27-.64,10.86,10.86,0,0,1-2.08-1.15,8.1,8.1,0,0,1-1.75-1.71,1.84,1.84,0,0,1-.31-.54,1.87,1.87,0,0,1-.09-.56,1.35,1.35,0,0,1,.11-.5,1,1,0,0,1,.32-.39l2.36-2.36a.81.81,0,0,1,.77-.25A2.48,2.48,0,0,1,141.41,25.85Z"/><path class="cls-1" d="M160.5,6.25a1,1,0,0,1,.37-.85,4.23,4.23,0,0,1,1.07-.54l4.15-1.44a.52.52,0,0,1,.17,0h.16a1,1,0,0,1,.9.39,2.07,2.07,0,0,1,.23,1l0,5H170a1.32,1.32,0,0,1,.95.34,1.35,1.35,0,0,1,.37,1v3.53a1.48,1.48,0,0,1-.37,1.12,1.29,1.29,0,0,1-.95.36h-2.5l0,15.41a1.34,1.34,0,0,1-.4,1.06,1.67,1.67,0,0,1-1.12.35h-4.12a1.25,1.25,0,0,1-1.41-1.41l0-15.41H158.6c-.94,0-1.41-.49-1.41-1.48V11.23a1.23,1.23,0,0,1,1.41-1.38h1.88Z"/><path class="cls-1" d="M193.52,30.28a12.19,12.19,0,0,1-3.61,2.32,11.11,11.11,0,0,1-4.26.83A12.47,12.47,0,0,1,177,30a12,12,0,0,1-2.67-3.81,11.58,11.58,0,0,1-1-4.76,12.35,12.35,0,0,1,1.5-5.94,12.27,12.27,0,0,1,1.76-2.42,11,11,0,0,1,2.31-1.89,11.39,11.39,0,0,1,2.78-1.22,10.87,10.87,0,0,1,3.16-.44,10.7,10.7,0,0,1,2.94.4A11.71,11.71,0,0,1,190.48,11a11.17,11.17,0,0,1,2.29,1.76A11.53,11.53,0,0,1,194.56,15a10.65,10.65,0,0,1,1.16,2.6,9.66,9.66,0,0,1,.41,2.84c0,.63,0,1.15,0,1.55a1.71,1.71,0,0,1-.29,1,1.35,1.35,0,0,1-.84.49,8.44,8.44,0,0,1-1.75.14H180.08a4.5,4.5,0,0,0,.74,1.95,4.67,4.67,0,0,0,1.29,1.26,4.94,4.94,0,0,0,1.55.66,6.22,6.22,0,0,0,1.55.2,7,7,0,0,0,1.35-.13,11.64,11.64,0,0,0,1.35-.37,7.52,7.52,0,0,0,1.18-.53A3.91,3.91,0,0,0,190,26a4.19,4.19,0,0,1,.5-.36,1,1,0,0,1,.45-.11.89.89,0,0,1,.49.16,4.08,4.08,0,0,1,.55.47l1.94,2.2a1.08,1.08,0,0,1,.25.43,1.23,1.23,0,0,1,.06.39,1.05,1.05,0,0,1-.2.63A2.1,2.1,0,0,1,193.52,30.28Zm-8.78-15.21a3.44,3.44,0,0,0-1.38.28,5,5,0,0,0-1.25.76,6.71,6.71,0,0,0-1.05,1.08,6.44,6.44,0,0,0-.76,1.22h9.33a10.07,10.07,0,0,0-.83-1.31,5.41,5.41,0,0,0-1-1.06,4.42,4.42,0,0,0-1.32-.72A5.28,5.28,0,0,0,184.74,15.07Z"/><path class="cls-1" d="M202.16,10.19A7.24,7.24,0,0,1,202.89,7a8.74,8.74,0,0,1,2-2.63,9.57,9.57,0,0,1,2.81-1.77A8.78,8.78,0,0,1,211,2h.36a1.24,1.24,0,0,1,1,.38,1.5,1.5,0,0,1,.34,1V6.85A1.73,1.73,0,0,1,212.29,8a1.14,1.14,0,0,1-.94.45H211a2,2,0,0,0-.73.14,2.09,2.09,0,0,0-.63.37,1.79,1.79,0,0,0-.43.56,1.51,1.51,0,0,0-.17.7v2.1h2.87a1.34,1.34,0,0,1,1,.34,1.49,1.49,0,0,1,.34,1.07V17a1.66,1.66,0,0,1-.34,1.15,1.24,1.24,0,0,1-1,.37H209V31.65a1.25,1.25,0,0,1-.46,1.06,1.68,1.68,0,0,1-1,.35h-3.94a1.39,1.39,0,0,1-1.05-.41,1.36,1.36,0,0,1-.4-1V18.56h-1.88a1.43,1.43,0,0,1-1-.37,1.49,1.49,0,0,1-.39-1.15V13.7a1.35,1.35,0,0,1,.39-1.07,1.56,1.56,0,0,1,1-.34h1.88Z"/><path class="cls-1" d="M240.06,31.71a1.47,1.47,0,0,1-.11.59.89.89,0,0,1-.36.45.94.94,0,0,1-.48.26,3,3,0,0,1-.47.05H235a1.58,1.58,0,0,1-.62-.1.92.92,0,0,1-.38-.28,1.6,1.6,0,0,1-.25-.45c-.07-.18-.14-.37-.21-.58l-.24-.82a11,11,0,0,1-1.12,1,8.31,8.31,0,0,1-1.39.85,8.44,8.44,0,0,1-1.62.6,7.16,7.16,0,0,1-1.8.23,11.92,11.92,0,0,1-3.19-.42,11.62,11.62,0,0,1-2.85-1.2A11.35,11.35,0,0,1,219,30a11.74,11.74,0,0,1-3.05-5.3,12.15,12.15,0,0,1-.42-3.22A12,12,0,0,1,219,13a11.75,11.75,0,0,1,3.78-2.54,11.88,11.88,0,0,1,4.66-.92,8,8,0,0,1,3.9.95,7,7,0,0,1,1.47,1.05,8.92,8.92,0,0,1,1.15,1.32l.53-1.66.3-.74A1.32,1.32,0,0,1,235,10a.7.7,0,0,1,.34-.18,2.72,2.72,0,0,1,.57-.05h2.72a2.23,2.23,0,0,1,.47.06.86.86,0,0,1,.48.25,1.19,1.19,0,0,1,.36.46,1.34,1.34,0,0,1,.11.58Zm-18-10.23a6.7,6.7,0,0,0,.38,2.26,5.34,5.34,0,0,0,1.06,1.81,5.1,5.1,0,0,0,3.84,1.67,5.74,5.74,0,0,0,4.1-1.67,5.56,5.56,0,0,0,1.22-1.81,6.08,6.08,0,0,0,0-4.49,6,6,0,0,0-1.22-1.86,5.68,5.68,0,0,0-1.82-1.27,5.57,5.57,0,0,0-2.28-.47,5,5,0,0,0-2.16.47,5.12,5.12,0,0,0-1.68,1.27,5.78,5.78,0,0,0-1.06,1.86A6.65,6.65,0,0,0,222.07,21.48ZM227.52.16a.94.94,0,0,1,.2-.12.35.35,0,0,1,.2,0,.64.64,0,0,1,.36.16L233,4.84a.51.51,0,0,1,.14.42.53.53,0,0,1-.16.35l-1.61,1.64a.64.64,0,0,1-.49.2.54.54,0,0,1-.4-.16l-2.54-2.6-2.6,2.62a.43.43,0,0,1-.43.14.71.71,0,0,1-.37-.2l-1.64-1.59a.36.36,0,0,1-.12-.19,1.6,1.6,0,0,1,0-.21.54.54,0,0,1,0-.24.61.61,0,0,1,.12-.16Z"/><path class="cls-1" d="M244.92,10.19a1.24,1.24,0,0,1,.51-.26,2.92,2.92,0,0,1,.5,0h2.76a1.25,1.25,0,0,1,.56.12,1.13,1.13,0,0,1,.4.32,1.68,1.68,0,0,1,.27.45c.07.17.13.35.19.53l.38,1.6a4.56,4.56,0,0,1,.89-1.16,6.44,6.44,0,0,1,1.52-1.09A9.79,9.79,0,0,1,255,9.83a10.31,10.31,0,0,1,2.65-.31,8.16,8.16,0,0,1,6.49,3,9.6,9.6,0,0,1,1.73,3.24,12.71,12.71,0,0,1,.6,4v12a1.61,1.61,0,0,1-.3,1.06,1.21,1.21,0,0,1-1,.35H261a1.7,1.7,0,0,1-1.08-.26,1.42,1.42,0,0,1-.29-1V19.87a3.24,3.24,0,0,0-.36-1.49,4.52,4.52,0,0,0-.94-1.24,4.59,4.59,0,0,0-1.32-.85,4,4,0,0,0-1.51-.31,3.44,3.44,0,0,0-1.34.29,4.77,4.77,0,0,0-2.23,2,3.67,3.67,0,0,0-.45,1.53V31.71a1.71,1.71,0,0,1-.12.62,1,1,0,0,1-.35.48,2.15,2.15,0,0,1-.45.2,2.28,2.28,0,0,1-.48.05h-4.13a1.47,1.47,0,0,1-1.13-.38,1.45,1.45,0,0,1-.35-1V11.23a1.4,1.4,0,0,1,.15-.64,1.24,1.24,0,0,1,.43-.45Z"/><path class="cls-1" d="M270.82,2.05A1.46,1.46,0,0,1,271.15,1a1.44,1.44,0,0,1,1-.32h4.23a1.59,1.59,0,0,1,1,.32,1.3,1.3,0,0,1,.4,1.09V5.61a1.47,1.47,0,0,1-.1.47,2,2,0,0,1-.29.5A1.65,1.65,0,0,1,277,7a1.21,1.21,0,0,1-.6.15h-4.23c-.91,0-1.36-.5-1.36-1.51Zm0,9.24a1.59,1.59,0,0,1,.33-1,1.22,1.22,0,0,1,1-.42h4.18a1.47,1.47,0,0,1,.47.1,1.75,1.75,0,0,1,.48.3,1.77,1.77,0,0,1,.37.44,1.07,1.07,0,0,1,.16.59V31.65a1.37,1.37,0,0,1-.39,1.06,1.57,1.57,0,0,1-1.09.35h-4.18c-.91,0-1.36-.47-1.36-1.41Z"/><path class="cls-1" d="M281.51,21.48A11.85,11.85,0,0,1,285,13a11.88,11.88,0,0,1,5.29-3,12.28,12.28,0,0,1,3.23-.42,11.92,11.92,0,0,1,4.66.92A11.73,11.73,0,0,1,302,13a12.06,12.06,0,0,1,2.56,3.8,12.3,12.3,0,0,1,.51,7.94,12.24,12.24,0,0,1-1.2,2.88A11.59,11.59,0,0,1,302,30a11.22,11.22,0,0,1-2.42,1.86,11.9,11.9,0,0,1-6,1.62,12.28,12.28,0,0,1-3.23-.42,11.6,11.6,0,0,1-2.87-1.2A11.22,11.22,0,0,1,285,30a11.59,11.59,0,0,1-1.87-2.42,12.24,12.24,0,0,1-1.2-2.88A11.75,11.75,0,0,1,281.51,21.48Zm6.67,0a6.7,6.7,0,0,0,.37,2.26,5.34,5.34,0,0,0,1.06,1.81,4.94,4.94,0,0,0,1.66,1.22,5.21,5.21,0,0,0,2.2.45,5,5,0,0,0,2.15-.45,4.69,4.69,0,0,0,1.62-1.22,5.28,5.28,0,0,0,1-1.81,7.37,7.37,0,0,0,0-4.49,5.71,5.71,0,0,0-1-1.86,4.7,4.7,0,0,0-1.62-1.27,4.88,4.88,0,0,0-2.15-.47,5.07,5.07,0,0,0-2.2.47,4.94,4.94,0,0,0-1.66,1.27,5.78,5.78,0,0,0-1.06,1.86A6.65,6.65,0,0,0,288.18,21.48Z"/><path class="cls-2" d="M112.55,50.58a.74.74,0,0,1,.25-.59.91.91,0,0,1,.61-.22h19.65a1,1,0,0,1,.59.2.83.83,0,0,1,.29.61v4.53a1,1,0,0,1-.23.63.77.77,0,0,1-.65.3h-6.3V76a.88.88,0,0,1-.23.59.8.8,0,0,1-.62.27h-5.36a.82.82,0,0,1-.58-.25.8.8,0,0,1-.28-.61V56h-6.28a.84.84,0,0,1-.61-.24.89.89,0,0,1-.25-.69Z"/><path class="cls-2" d="M144.63,56.14a4.72,4.72,0,0,1,1-1,7.14,7.14,0,0,1,1.4-.89,8.9,8.9,0,0,1,1.76-.64,8.53,8.53,0,0,1,2.05-.25,7.6,7.6,0,0,1,3.61.81,7.25,7.25,0,0,1,2.52,2.18,9.64,9.64,0,0,1,1.48,3.24,15.66,15.66,0,0,1,.48,4v12a1.57,1.57,0,0,1-.3,1.05,1.18,1.18,0,0,1-1,.36h-4.22a1.64,1.64,0,0,1-1.08-.27,1.39,1.39,0,0,1-.29-1V63.53a3.57,3.57,0,0,0-.3-1.46,3.76,3.76,0,0,0-.81-1.18,3.63,3.63,0,0,0-1.2-.79,3.74,3.74,0,0,0-1.45-.28,3.25,3.25,0,0,0-1.29.27,3.51,3.51,0,0,0-1.13.74A4.11,4.11,0,0,0,145,62a3.7,3.7,0,0,0-.39,1.5V75.55a1.75,1.75,0,0,1-.12.62,1,1,0,0,1-.36.47,1.45,1.45,0,0,1-.45.2,1.75,1.75,0,0,1-.48.06h-4.13a1.29,1.29,0,0,1-1.48-1.41V48.2a1.46,1.46,0,0,1,.35-1,1.48,1.48,0,0,1,1.13-.38h4.13a1.85,1.85,0,0,1,.93.29,1,1,0,0,1,.36.47,1.68,1.68,0,0,1,.12.59Z"/><path class="cls-2" d="M187.15,75.55a1.71,1.71,0,0,1-.11.59.94.94,0,0,1-.36.45.93.93,0,0,1-.48.25,2.24,2.24,0,0,1-.48.06h-3.59a1.51,1.51,0,0,1-.62-.1,1,1,0,0,1-.39-.28,1.61,1.61,0,0,1-.24-.45c-.07-.18-.14-.37-.21-.58l-.24-.82a11.17,11.17,0,0,1-1.13,1,8.64,8.64,0,0,1-1.38.85,8.54,8.54,0,0,1-1.63.6,7.16,7.16,0,0,1-1.8.23,11.82,11.82,0,0,1-6-1.62,11.69,11.69,0,0,1-2.4-1.86,12.13,12.13,0,0,1-1.85-2.42,11.83,11.83,0,0,1-1.2-2.88,12.2,12.2,0,0,1-.42-3.22,12,12,0,0,1,3.47-8.52,11.6,11.6,0,0,1,3.78-2.54,11.74,11.74,0,0,1,4.66-.92,8.31,8.31,0,0,1,2.11.25,7.67,7.67,0,0,1,1.79.7,7,7,0,0,1,1.47,1.05A8,8,0,0,1,181,56.66l.53-1.66c.12-.31.22-.55.3-.74a1.32,1.32,0,0,1,.26-.42.66.66,0,0,1,.34-.18,2.61,2.61,0,0,1,.56,0h2.72a3,3,0,0,1,.48,0,1,1,0,0,1,.48.26,1.21,1.21,0,0,1,.36.46,1.5,1.5,0,0,1,.11.58Zm-18-10.23a6.64,6.64,0,0,0,.37,2.25,5.41,5.41,0,0,0,1.07,1.82,5.11,5.11,0,0,0,1.67,1.22,5.26,5.26,0,0,0,2.17.44,5.73,5.73,0,0,0,4.1-1.66,5.57,5.57,0,0,0,1.21-1.82,5.92,5.92,0,0,0-1.21-6.34A5.73,5.73,0,0,0,176.71,60a5.56,5.56,0,0,0-2.27-.47,5,5,0,0,0-3.84,1.74,5.7,5.7,0,0,0-1.07,1.86A6.65,6.65,0,0,0,169.16,65.32Z"/><path class="cls-2" d="M191.53,48.2a1.57,1.57,0,0,1,.3-1,1.14,1.14,0,0,1,1-.41h4.47a.86.86,0,0,1,.39.11,1.21,1.21,0,0,1,.37.28,1.55,1.55,0,0,1,.3.44,1.47,1.47,0,0,1,.11.56V75.49a1.33,1.33,0,0,1-.39,1.05,1.44,1.44,0,0,1-1,.36h-4.24a1.2,1.2,0,0,1-1-.36,1.57,1.57,0,0,1-.3-1.05Z"/><path class="cls-2" d="M202.86,48.2a1.63,1.63,0,0,1,.29-1,1.16,1.16,0,0,1,1-.41h4.47a.82.82,0,0,1,.38.11,1.24,1.24,0,0,1,.38.28,1.77,1.77,0,0,1,.29.44,1.31,1.31,0,0,1,.12.56V75.49a1.33,1.33,0,0,1-.39,1.05,1.46,1.46,0,0,1-1,.36h-4.23a1.23,1.23,0,0,1-1-.36,1.62,1.62,0,0,1-.29-1.05Z"/><path class="cls-2" d="M233.62,74.12A12,12,0,0,1,230,76.43a10.93,10.93,0,0,1-4.26.83,12.4,12.4,0,0,1-8.64-3.44A12.21,12.21,0,0,1,214.44,70a11.43,11.43,0,0,1-1-4.76,12.41,12.41,0,0,1,.39-3.12A12.86,12.86,0,0,1,215,59.31a11.84,11.84,0,0,1,1.75-2.42A11,11,0,0,1,219,55a12,12,0,0,1,2.78-1.23,11.27,11.27,0,0,1,3.16-.43,10.7,10.7,0,0,1,2.94.4,11.53,11.53,0,0,1,2.68,1.13,12.09,12.09,0,0,1,2.29,1.75,12.31,12.31,0,0,1,1.79,2.24,11,11,0,0,1,1.16,2.6,10,10,0,0,1,.41,2.84c0,.63,0,1.15,0,1.55a1.79,1.79,0,0,1-.28,1,1.39,1.39,0,0,1-.85.49,8.44,8.44,0,0,1-1.75.14H220.17a4.62,4.62,0,0,0,.74,2,4.5,4.5,0,0,0,1.29,1.25,5.17,5.17,0,0,0,1.55.67,6.81,6.81,0,0,0,1.56.2,6.45,6.45,0,0,0,1.35-.14A9.78,9.78,0,0,0,228,71a7.64,7.64,0,0,0,1.19-.53,3.61,3.61,0,0,0,.86-.63,4.17,4.17,0,0,1,.51-.36.89.89,0,0,1,.45-.12.9.9,0,0,1,.48.17,4.8,4.8,0,0,1,.56.47L234,72.2a1.29,1.29,0,0,1,.26.43,1.75,1.75,0,0,1,0,.4,1,1,0,0,1-.2.63A2.28,2.28,0,0,1,233.62,74.12Zm-8.79-15.21a3.51,3.51,0,0,0-1.38.28,5.23,5.23,0,0,0-1.25.76,6.32,6.32,0,0,0-1,1.08,7,7,0,0,0-.76,1.22h9.34a11.77,11.77,0,0,0-.83-1.31,5.18,5.18,0,0,0-1-1.06,4.27,4.27,0,0,0-1.31-.72A5.35,5.35,0,0,0,224.83,58.91Z"/><path class="cls-2" d="M243.52,69.68a5.35,5.35,0,0,0,1.07.84,8.54,8.54,0,0,0,1.1.54,6.14,6.14,0,0,0,.93.3,2.56,2.56,0,0,0,.55.1l.89,0a4.93,4.93,0,0,0,1-.17,2.22,2.22,0,0,0,.85-.44,1.1,1.1,0,0,0,.35-.88,1.39,1.39,0,0,0-.2-.81,1.62,1.62,0,0,0-.58-.51,5,5,0,0,0-.94-.38l-1.25-.38a14.86,14.86,0,0,1-3.62-1.41,8.2,8.2,0,0,1-2.26-1.84,6,6,0,0,1-1.16-2.18A9,9,0,0,1,240,60a6.27,6.27,0,0,1,.6-2.76,6.06,6.06,0,0,1,1.71-2.13,8.22,8.22,0,0,1,2.67-1.37,11.7,11.7,0,0,1,3.45-.48,11.35,11.35,0,0,1,2.16.19,8.93,8.93,0,0,1,1.92.6,9.94,9.94,0,0,1,1.78,1.06A14.12,14.12,0,0,1,256,56.62a1.13,1.13,0,0,1,.32.69.92.92,0,0,1-.41.68c-.47.39-.93.78-1.36,1.16s-.88.79-1.34,1.25a.94.94,0,0,1-.44.23.85.85,0,0,1-.42,0,1,1,0,0,1-.38-.18,1.6,1.6,0,0,1-.33-.31,3.27,3.27,0,0,0-1.46-1,5.51,5.51,0,0,0-1.54-.24,2.77,2.77,0,0,0-1.42.31.94.94,0,0,0-.49.95,1,1,0,0,0,.35.74,2.47,2.47,0,0,0,.79.42,7.41,7.41,0,0,0,1,.27,9.71,9.71,0,0,1,1,.23,26.88,26.88,0,0,1,3,1.15,9.18,9.18,0,0,1,2.37,1.52,6.37,6.37,0,0,1,1.56,2.17,7.59,7.59,0,0,1,.56,3.07,7.07,7.07,0,0,1-.72,3.23,6.85,6.85,0,0,1-2,2.39,9,9,0,0,1-3,1.48,13.63,13.63,0,0,1-6,.31,10.44,10.44,0,0,1-2.26-.65,9.94,9.94,0,0,1-2.09-1.15,8.28,8.28,0,0,1-1.75-1.7,2.06,2.06,0,0,1-.3-.54,1.4,1.4,0,0,1-.09-.56,1.18,1.18,0,0,1,.11-.5.86.86,0,0,1,.32-.39l2.35-2.36a.84.84,0,0,1,.78-.26A2.84,2.84,0,0,1,243.52,69.68Z"/></g></g></svg>